<svg width="112" height="36" viewBox="0 0 112 36" fill="none" xmlns="http://www.w3.org/2000/svg">
<path d="M24.3125 29H19.8438V13C19.8438 12.6875 19.7812 12.3958 19.6562 12.125C19.5417 11.8542 19.3802 11.6198 19.1719 11.4219C18.974 11.2135 18.7396 11.0521 18.4688 10.9375C18.1979 10.8229 17.9062 10.7656 17.5938 10.7656C17.2812 10.7656 16.9896 10.8229 16.7188 10.9375C16.4479 11.0521 16.2083 11.2135 16 11.4219C15.8021 11.6198 15.6458 11.8542 15.5312 12.125C15.4167 12.3958 15.3594 12.6875 15.3594 13V29H10.875V13C10.875 12.6875 10.8177 12.3958 10.7031 12.125C10.5885 11.8542 10.4271 11.6198 10.2188 11.4219C10.0208 11.2135 9.78646 11.0521 9.51562 10.9375C9.24479 10.8229 8.95312 10.7656 8.64062 10.7656C8.32812 10.7656 8.03646 10.8229 7.76562 10.9375C7.49479 11.0521 7.25521 11.2135 7.04688 11.4219C6.84896 11.6198 6.69271 11.8542 6.57812 12.125C6.46354 12.3958 6.40625 12.6875 6.40625 13V29H1.92188V13C1.92188 12.0729 2.09375 11.2031 2.4375 10.3906C2.79167 9.56771 3.27083 8.85417 3.875 8.25C4.48958 7.63542 5.20312 7.15625 6.01562 6.8125C6.83854 6.45833 7.71354 6.28125 8.64062 6.28125C9.47396 6.28125 10.276 6.43229 11.0469 6.73438C11.8177 7.02604 12.5104 7.45312 13.125 8.01562C13.7396 7.45312 14.4271 7.02604 15.1875 6.73438C15.9583 6.43229 16.7604 6.28125 17.5938 6.28125C18.5208 6.28125 19.3906 6.45833 20.2031 6.8125C21.026 7.15625 21.7396 7.63542 22.3438 8.25C22.9583 8.85417 23.4375 9.56771 23.7812 10.3906C24.1354 11.2031 24.3125 12.0729 24.3125 13V29ZM34.3438 24.9062C34.5104 24.9583 34.6771 24.9948 34.8438 25.0156C35.0104 25.026 35.1771 25.0312 35.3438 25.0312C35.7604 25.0312 36.1615 24.974 36.5469 24.8594C36.9323 24.7448 37.2917 24.5833 37.625 24.375C37.9688 24.1562 38.2708 23.8958 38.5312 23.5938C38.8021 23.2812 39.0208 22.9375 39.1875 22.5625L42.3125 25.7031C41.9167 26.2656 41.4583 26.7708 40.9375 27.2188C40.4271 27.6667 39.8698 28.0469 39.2656 28.3594C38.6719 28.6719 38.0417 28.9062 37.375 29.0625C36.7188 29.2292 36.0417 29.3125 35.3438 29.3125C34.1667 29.3125 33.0573 29.0938 32.0156 28.6562C30.9844 28.2188 30.0781 27.6094 29.2969 26.8281C28.526 26.0469 27.9167 25.1198 27.4688 24.0469C27.0208 22.9635 26.7969 21.776 26.7969 20.4844C26.7969 19.1615 27.0208 17.9531 27.4688 16.8594C27.9167 15.7656 28.526 14.8333 29.2969 14.0625C30.0781 13.2917 30.9844 12.6927 32.0156 12.2656C33.0573 11.8385 34.1667 11.625 35.3438 11.625C36.0417 11.625 36.724 11.7083 37.3906 11.875C38.0573 12.0417 38.6875 12.2812 39.2812 12.5938C39.8854 12.9062 40.4479 13.2917 40.9688 13.75C41.4896 14.1979 41.9479 14.7031 42.3438 15.2656L34.3438 24.9062ZM36.5312 16.1094C36.3333 16.0365 36.1354 15.9896 35.9375 15.9688C35.75 15.9479 35.5521 15.9375 35.3438 15.9375C34.7604 15.9375 34.2083 16.0469 33.6875 16.2656C33.1771 16.474 32.7292 16.776 32.3438 17.1719C31.9688 17.5677 31.6719 18.0469 31.4531 18.6094C31.2344 19.1615 31.125 19.7865 31.125 20.4844C31.125 20.6406 31.1302 20.8177 31.1406 21.0156C31.1615 21.2135 31.1875 21.4167 31.2188 21.625C31.2604 21.8229 31.3073 22.0156 31.3594 22.2031C31.4115 22.3906 31.4792 22.5573 31.5625 22.7031L36.5312 16.1094ZM65.7812 29H61.5312V18.375C61.5312 18.0833 61.474 17.8073 61.3594 17.5469C61.2552 17.2865 61.1042 17.0573 60.9062 16.8594C60.7083 16.6615 60.4792 16.5104 60.2188 16.4062C59.9583 16.2917 59.6823 16.2344 59.3906 16.2344C59.099 16.2344 58.8229 16.2917 58.5625 16.4062C58.3125 16.5104 58.0885 16.6615 57.8906 16.8594C57.7031 17.0573 57.5521 17.2865 57.4375 17.5469C57.3333 17.8073 57.2812 18.0833 57.2812 18.375V29H53.0156V18.375C53.0156 18.0833 52.9583 17.8073 52.8438 17.5469C52.7396 17.2865 52.5885 17.0573 52.3906 16.8594C52.1927 16.6615 51.9635 16.5104 51.7031 16.4062C51.4427 16.2917 51.1667 16.2344 50.875 16.2344C50.5833 16.2344 50.3073 16.2917 50.0469 16.4062C49.7969 16.5104 49.5729 16.6615 49.375 16.8594C49.1875 17.0573 49.0365 17.2865 48.9219 17.5469C48.8177 17.8073 48.7656 18.0833 48.7656 18.375V29H44.5V12.2656H45.5312L46.6875 13.5469C47.2812 13.0469 47.9323 12.6615 48.6406 12.3906C49.3594 12.1094 50.1042 11.9688 50.875 11.9688C51.6562 11.9688 52.4167 12.1146 53.1562 12.4062C53.9062 12.6979 54.5625 13.2031 55.125 13.9219C55.3854 13.5677 55.6823 13.2656 56.0156 13.0156C56.349 12.7656 56.6979 12.5625 57.0625 12.4062C57.4375 12.25 57.8229 12.1406 58.2188 12.0781C58.6146 12.0052 59.0052 11.9688 59.3906 11.9688C60.276 11.9688 61.1042 12.1354 61.875 12.4688C62.6562 12.8021 63.3333 13.2604 63.9062 13.8438C64.4896 14.4167 64.9479 15.0938 65.2812 15.875C65.6146 16.6562 65.7812 17.4896 65.7812 18.375V29ZM85.5312 20.4844C85.5312 21.7969 85.3073 22.9948 84.8594 24.0781C84.4115 25.1615 83.8021 26.0938 83.0312 26.875C82.2604 27.6458 81.3542 28.2448 80.3125 28.6719C79.2812 29.099 78.1719 29.3125 76.9844 29.3125C75.8073 29.3125 74.6979 29.0938 73.6562 28.6562C72.625 28.2188 71.7188 27.6094 70.9375 26.8281C70.1667 26.0469 69.5573 25.1198 69.1094 24.0469C68.6615 22.9635 68.4375 21.776 68.4375 20.4844V5.60938H72.7188V13.4219C72.9479 13.1302 73.224 12.8698 73.5469 12.6406C73.8802 12.4115 74.2344 12.224 74.6094 12.0781C74.9948 11.9323 75.3906 11.8229 75.7969 11.75C76.2031 11.6667 76.599 11.625 76.9844 11.625C78.1719 11.625 79.2812 11.849 80.3125 12.2969C81.3542 12.7344 82.2604 13.349 83.0312 14.1406C83.8021 14.9323 84.4115 15.8698 84.8594 16.9531C85.3073 18.026 85.5312 19.2031 85.5312 20.4844ZM81.2344 20.4844C81.2344 19.8385 81.1198 19.2396 80.8906 18.6875C80.6719 18.125 80.3698 17.6406 79.9844 17.2344C79.599 16.8281 79.1458 16.5104 78.625 16.2812C78.1146 16.0521 77.5677 15.9375 76.9844 15.9375C76.401 15.9375 75.849 16.0677 75.3281 16.3281C74.8177 16.5781 74.3698 16.9167 73.9844 17.3438C73.599 17.7604 73.2969 18.2448 73.0781 18.7969C72.8594 19.3385 72.75 19.901 72.75 20.4844C72.75 21.1302 72.8594 21.7292 73.0781 22.2812C73.2969 22.8333 73.599 23.3125 73.9844 23.7188C74.3698 24.125 74.8177 24.4479 75.3281 24.6875C75.849 24.9167 76.401 25.0312 76.9844 25.0312C77.5677 25.0312 78.1146 24.9167 78.625 24.6875C79.1458 24.4479 79.599 24.125 79.9844 23.7188C80.3698 23.3125 80.6719 22.8333 80.8906 22.2812C81.1198 21.7292 81.2344 21.1302 81.2344 20.4844ZM92.2031 29H87.9062V5.60938H92.2031V29ZM99.5 35.375V31.0781L101.875 31.1094C102.292 31.1094 102.693 31.0417 103.078 30.9062C103.464 30.7708 103.818 30.5833 104.141 30.3438C104.474 30.1042 104.766 29.8177 105.016 29.4844C105.266 29.1615 105.469 28.8073 105.625 28.4219C105.156 28.6198 104.677 28.8177 104.188 29.0156C103.708 29.2135 103.224 29.3125 102.734 29.3125C101.703 29.3125 100.734 29.1302 99.8281 28.7656C98.9219 28.401 98.125 27.8854 97.4375 27.2188C96.7604 26.5417 96.224 25.724 95.8281 24.7656C95.4427 23.7969 95.25 22.7135 95.25 21.5156V12.2656H99.5V21.5156C99.5 22.1094 99.5833 22.6302 99.75 23.0781C99.9271 23.5156 100.161 23.8854 100.453 24.1875C100.745 24.4792 101.083 24.6979 101.469 24.8438C101.865 24.9896 102.286 25.0625 102.734 25.0625C103.172 25.0625 103.583 24.9635 103.969 24.7656C104.365 24.5573 104.708 24.2865 105 23.9531C105.292 23.6198 105.521 23.2448 105.688 22.8281C105.854 22.401 105.938 21.9635 105.938 21.5156V12.2656H110.234V26.8906C110.224 28.0677 109.995 29.1719 109.547 30.2031C109.099 31.2344 108.484 32.1354 107.703 32.9062C106.932 33.6771 106.031 34.2865 105 34.7344C103.969 35.1823 102.865 35.4062 101.688 35.4062L99.5 35.375Z" fill="#212121"/>
</svg>
